# xmcd CD database file
#
# Track frame offsets:
#	150
#	17311
#	30900
#
# Disc length: 640 seconds
#
# Revision: 0
# Processed by: cddbd v1.5.2PL0 Copyright (c) Steve Scherf et al.
# Submitted via: CDex 1.70beta3
#
DISCID=0e027e03
DTITLE=Da-iCE - SHOUT IT OUT
DYEAR=2014
DGENRE=avex
TTITLE0=SHOUT IT OUT
TTITLE1=what you say
TTITLE2=SHOUT IT OUT -English ver.- 
EXTD=YEAR: 2014
EXTT0=
EXTT1=
EXTT2=
PLAYORDER=
